<?xml version="1.0" encoding="utf-8"?>
<!-- Generator: Adobe Illustrator 23.0.1, SVG Export Plug-In . SVG Version: 6.00 Build 0)  -->
<svg version="1.1" id="Ebene_1" xmlns="http://www.w3.org/2000/svg" xmlns:xlink="http://www.w3.org/1999/xlink" x="0px" y="0px"
	 viewBox="0 0 50 50" style="enable-background:new 0 0 50 50;" xml:space="preserve">
<path d="M14.3,24.9c0.5-0.4,1.2-0.6,2-0.6h3.5v5.4h-3.5c-0.9,0-1.5-0.2-2-0.7c-0.6-0.5-0.8-1.1-0.8-2.1S13.9,25.3,14.3,24.9z"/>
<path d="M38.3,1.2H11.5C5.7,1.2,1,5.9,1,11.7v26.8C1,44.3,5.7,49,11.5,49h26.9c5.8,0,10.5-4.7,10.5-10.5V11.7
	C48.8,5.9,44.1,1.2,38.3,1.2z M23.7,35.6c0,1.1-0.4,2-1.1,2.7c-0.7,0.7-1.7,1.1-2.7,1.1v-6.6H16c-2,0-3.5-0.5-4.6-1.3
	c-1.1-1-1.6-2.4-1.6-4.6c0-1.9,0.6-3.5,1.7-4.3c1.1-1,2.5-1.4,4.3-1.4h7.9V35.6z M25.7,11.8c0.1,0,0.2,0.1,0.3,0.2
	c1.3,1.6,2.5,4.4,2.9,6c0.5,1.7,1,3.3-2.2,3.3c-0.3,0-0.7,0-1-0.1V11.8z M34,22.5c-0.5,0.1-1,0.1-1.4,0.1h-3v6.6
	c-2.1,0-3.8-1.7-3.8-3.8v-3.3c0.3,0.1,0.6,0.1,1,0.1c1,0,2.3-0.1,3.1-1c0.7-1,0.4-2.2,0.1-3.3l-0.1-0.2c-0.4-1.4-1.5-4.4-3.1-6.3
	c-0.2-0.2-0.4-0.4-0.6-0.5h4.2c2,0.1,3.9,1.6,4.3,2.8c0.1,0.3,0.4,0.5,0.7,0.6l3.8,1c0.6,0.1,0.9,0.7,0.9,1.2
	C39.9,18.3,38.7,21.8,34,22.5z M32.3,14.4c-0.6,0-1.1,0.5-1.1,1c0,0.6,0.5,1.1,1.1,1.1c0.6,0,1.1-0.5,1.1-1.1
	C33.3,14.8,32.9,14.4,32.3,14.4z"/>
</svg>
